<?xml version="1.0" encoding="UTF-8"?>
<svg width="127px" height="26px" viewBox="0 0 127 26" version="1.1"
    xmlns="http://www.w3.org/2000/svg"
    xmlns:xlink="http://www.w3.org/1999/xlink">
    <!-- Generator: Sketch 51.3 (57544) - http://www.bohemiancoding.com/sketch -->
    <title>bitflower_horizontal</title>
    <desc>Created with Sketch.</desc>
    <defs></defs>
    <g id="bitflower_horizontal" stroke="none" stroke-width="1" fill="none" fill-rule="evenodd">
        <g id="bitflower" transform="translate(35.000000, 4.000000)" fill="#000000">
            <path d="M6.14041446,15.2695449 C6.68218567,15.2695449 7.08493634,15.0075013 7.34866648,14.4844141 C7.61239662,13.9613269 7.74426169,13.1261877 7.74426169,11.9809968 C7.74426169,10.835806 7.67781805,9.98966494 7.54697519,9.44357393 C7.41511012,8.89748291 7.24031224,8.5374229 7.02360375,8.36239373 C6.80587306,8.18836473 6.51147663,8.10135023 6.14041446,8.10135023 C5.00780597,8.10135023 4.04692872,8.2523754 3.25573831,8.55642607 L3.25573831,14.5404234 C4.04692872,15.0265044 5.00780597,15.2695449 6.14041446,15.2695449 M3.2332497,0 L3.2332497,6.39506584 C4.39550228,5.86397733 5.64362048,5.59793299 6.9765821,5.59793299 C8.10816839,5.59793299 8.96069139,5.86397733 9.53517331,6.39506584 C10.1392993,6.94115686 10.5348945,7.66827805 10.7209367,8.5794299 C10.9069789,9.4745791 11,10.5747625 11,11.8789798 C11,13.8353059 10.6902704,15.3455576 10.0697891,16.4067345 C9.44930769,17.4689115 8.41892017,18 6.9765821,18 C6.31010129,18 5.6354428,17.8629772 4.95362884,17.5899317 C4.27079268,17.3168861 3.70551064,16.9988331 3.25573831,16.6347725 L2.67512313,17.8629772 L0,17.8629772 L0,0 L3.2332497,0" id="Fill-1"></path>
            <path d="M12.0995633,17 L14.8803493,17 L14.8803493,5.26517727 L12.0995633,5.26517727 L12.0995633,17 Z M12,3.51966974 L12,1.57406508 C12,1.19135503 12.158952,1 12.4768559,1 L14.5633188,1 C14.8541485,1 15,1.19135503 15,1.57406508 L15,3.51966974 C15,3.85866926 14.8541485,4.02768334 14.5633188,4.02768334 L12.4768559,4.02768334 C12.3310044,4.02768334 12.2148472,3.98300146 12.1292576,3.89460903 C12.0427948,3.80621661 12,3.68091306 12,3.51966974 Z" id="Fill-2"></path>
            <path d="M17,7.625 L17,5.90511892 L18.994649,5.26428387 L19.5277105,2 L22.2409224,2 L22.2409224,5.26428387 L25,5.26428387 L25,7.625 L22.2409224,7.625 L22.2409224,12.3231644 C22.2409224,13.1171794 22.3255192,13.6688211 22.4957319,13.97712 C22.6659447,14.2863883 22.9278889,14.5064633 23.2846222,14.6392839 C24.2121289,14.9485522 24.7299019,15.1027017 24.8379411,15.1027017 L24.8379411,17 L22.0095554,17 C19.9996178,17 18.994649,15.6019907 18.994649,12.8088806 L18.994649,7.625 L17,7.625" id="Fill-3"></path>
            <path d="M26,8.28934124 L26,6.22883346 L27.9420732,5.83927972 L27.9420732,4.80852254 C27.9420732,1.60250531 29.4603659,0 32.4969512,0 L39.3871951,0.0452969467 L39.3871951,13.1673191 C39.3871951,13.9927301 39.4644309,14.5574321 39.6189024,14.8624315 C39.7723577,15.1684375 40.0497967,15.3969355 40.4512195,15.5499385 C41.3760163,15.8710435 41.8922764,16.0310927 42,16.0310927 L42,18 L39.3180894,18 C38.2083333,18 37.402439,17.6768818 36.902439,17.0276255 C36.4014228,16.3783693 36.1504065,15.260038 36.1504065,13.6716251 L36.1504065,2.44905492 L33.1219512,2.42690974 C32.6737805,2.42690974 32.3130081,2.49535846 32.0355691,2.6332625 C31.4644309,2.89296499 31.179878,3.61771614 31.179878,4.80852254 L31.179878,5.83927972 L33.9542683,5.83927972 L33.9542683,8.29034784 L31.1565041,8.29034784 L31.1565041,18 L27.9186992,18 L27.9186992,8.29034784 L26,8.29034784 L26,8.28934124" id="Fill-4"></path>
            <path d="M46.6480203,9.10529737 C46.4582274,9.37146571 46.3333636,9.73805655 46.2724301,10.2040949 C46.2124955,10.6691583 46.1815292,11.3009425 46.1815292,12.0994475 C46.1815292,12.8989275 46.2194878,13.519987 46.295405,13.9636009 C46.3713222,14.4072148 46.5111696,14.7435814 46.7159462,14.9727007 C46.9207228,15.20182 47.1514711,15.3461163 47.4081911,15.4055899 C47.6669088,15.4650634 48.0145296,15.4933377 48.4540501,15.4933377 C48.8925717,15.4933377 49.2222121,15.479688 49.4429713,15.4494638 C49.6617327,15.4202145 49.8745005,15.3461163 50.0792772,15.2281443 C50.2840538,15.1101722 50.4308936,14.9249269 50.5207955,14.6733832 C50.7185797,14.1410465 50.8164729,13.4195645 50.8164729,12.5108872 C50.8164729,11.601235 50.7984926,10.9353266 50.760534,10.5141371 C50.7225754,10.0919727 50.6586451,9.73805655 50.5667454,9.44946376 C50.4768434,9.16087098 50.3320015,8.95807605 50.136215,8.83912902 C49.7865964,8.61683458 49.2981293,8.50276243 48.6688158,8.49496263 C48.0405013,8.4881378 47.5939884,8.52128697 47.3282782,8.59538512 C47.0625681,8.66948326 46.8378133,8.840104 46.6480203,9.10529737 M43,12.2330192 C43,11.2131947 43.0609335,10.359116 43.1818017,9.67078323 C43.3026698,8.98342541 43.4924628,8.39941501 43.7501816,7.91875203 C44.0079005,7.43808905 44.3635125,7.05687358 44.8190156,6.7760806 C45.6511079,6.25836854 46.8787686,6 48.5009989,6 C50.5747367,6 52.0111696,6.44361391 52.8073011,7.32986675 C53.6024337,8.21806955 54,9.79655509 54,12.0662983 C54,14.3370166 53.610425,15.8930777 52.8302761,16.7354566 C52.0501271,17.5797855 50.6057029,18 48.5009989,18 C46.4412459,18 45.0018162,17.5495613 44.1827098,16.6467338 C43.3945696,15.7751056 43,14.3038674 43,12.2330192" id="Fill-5"></path>
            <polyline id="Fill-6" points="54 6 57.3879667 6 59.7822754 14.2940154 61.9274251 6 65.0890641 6 64.2542326 9.23218277 66.2415486 14.2940154 68.613026 6 72 6 68.1157007 18 64.5927315 18 62.785088 13.6612863 61.4310925 18 57.8386367 18 54 6"></polyline>
            <path d="M78.9356545,10.1334853 C78.9356545,9.39215367 78.8375493,8.91551359 78.640377,8.69965815 C78.4441666,8.48477942 78.0459748,8.37734006 77.4486871,8.37734006 C76.8494758,8.37734006 76.4378186,8.39687449 76.2117919,8.43301319 C75.9848033,8.4701286 75.7655093,8.57366108 75.5558334,8.74361061 C75.3432721,8.91551359 75.2086179,9.1704379 75.1499471,9.51131369 C75.0912763,9.85218948 75.0633837,10.1745076 75.0633837,10.4782679 L75.0633837,11.0223018 L77.9728768,11.0223018 C78.614408,11.0223018 78.9356545,10.7253785 78.9356545,10.1334853 M75.1287872,6.13381084 C75.6385496,6.04492919 76.2223718,6 76.8792921,6 C77.5362124,6 78.0459748,6.01172066 78.4114648,6.03418525 C78.7759931,6.05567312 79.1443686,6.10060231 79.5156295,6.16604265 C79.8888141,6.23343643 80.1898625,6.33013186 80.4245455,6.45515221 C80.6563432,6.582126 80.8842935,6.75207553 81.1026258,6.96695426 C81.320958,7.18183298 81.4883139,7.43773401 81.6056555,7.73368061 C81.8682312,8.39980466 82,9.16653101 82,10.0338597 C82,10.9002116 81.8759257,11.5555917 81.6277772,12 C81.1459075,12.8448641 80.1898625,13.2668077 78.760604,13.2668077 L75.0624219,13.2668077 C75.0624219,13.7854469 75.1057036,14.2005535 75.1941906,14.5121276 C75.2807541,14.8227251 75.4413773,15.0483477 75.6750986,15.1899723 C75.907858,15.3296435 76.1531211,15.4195019 76.4080023,15.4556406 C76.6638453,15.492756 77.3602001,15.5113137 78.4980283,15.5113137 C79.6358565,15.5113137 80.730403,15.4302458 81.780706,15.2671333 L81.780706,17.3788051 C81.1247475,17.6298226 80.46398,17.786098 79.800327,17.8447013 C79.136674,17.9033046 78.6807733,17.9413967 78.4326248,17.9550708 C78.1844763,17.9697216 77.8786188,17.9785121 77.5131288,17.9785121 C77.0331826,17.9931629 76.4705203,18 75.8289891,18 C74.3853035,18 73.3850149,17.5419176 72.8319708,16.6228227 C72.277003,15.7037278 72,14.2112974 72,12.1445548 C72,10.0778121 72.2212177,8.61077649 72.6675002,7.74442455 C73.1118592,6.8780726 73.9322882,6.34087579 75.1287872,6.13381084" id="Fill-7"></path>
            <path d="M84,18 L84,6.11217712 L86.689707,6.11217712 L87.1905835,7.61180812 C88.3305785,6.53726937 89.4855998,6 90.6546456,6 C91.3087904,6 91.7575758,6.04428044 92,6.13480935 L92,9.15670357 C91.5742549,9.11143911 90.9982469,9.0897909 90.2679689,9.0897909 C89.5386927,9.0897909 88.9346356,9.18327183 88.4557976,9.36924969 C87.9769597,9.55621156 87.5562234,9.90356704 87.1915853,10.4103321 L87.1915853,18 L84,18" id="Fill-8"></path>
        </g>
        <path d="M17.0271046,1 C15.0554607,1 12.7745589,2.02154802 13.4951597,3.53473443 C16.220432,9.25481457 14.8953271,11.1065544 14.8953271,11.1065544 C14.8953271,11.1065544 20.0866556,7.98990064 20.7842372,6.01451527 C21.4858221,4.04305516 20.4199334,1.8880893 18.4062545,1.20313203 C18.0019173,1.06476673 17.5245193,1 17.0271046,1 M4.57672371,10.5207098 C4.4165902,10.5207098 4.26646503,10.5324856 4.13135237,10.5579998 C2.03860749,10.9485628 0.668465093,12.9317987 1.06979972,14.9837265 C1.37905757,16.5744368 3.18956713,18.5360837 4.55670702,18.5360837 C4.95203664,18.5360837 5.31033538,18.3722043 5.58456403,17.9875291 C9.0094196,13.1839964 11.2362763,13.0122664 11.5385283,13.0122664 C11.5615475,13.0122664 11.5735575,13.0142291 11.5735575,13.0142291 C11.5735575,13.0142291 6.89465635,10.5207098 4.57672371,10.5207098 M8.20374785,2.26491393 C7.31000266,2.26491393 6.41025247,2.56814 5.68064414,3.18636791 C4.06930063,4.55137588 3.16054293,8.34121111 5.28531452,8.52177291 C11.6996627,9.06836489 12.6724738,11.1202928 12.6724738,11.1202928 C12.6724738,11.1202928 12.5153428,5.15390277 11.1201795,3.573987 C10.3595453,2.70846792 9.28464908,2.26491393 8.20374785,2.26491393 M12.695493,14.8934456 C12.695493,14.8934456 7.50416455,18.0110807 6.80558209,19.9854847 C6.10399712,21.9569448 7.17088667,24.1119107 9.18256396,24.7978493 C9.58790192,24.9352333 10.0653,25 10.5627147,25 C12.5343586,25 14.8152604,23.9794333 14.0956604,22.4662469 C11.3693873,16.7461667 12.695493,14.8934456 12.695493,14.8934456" id="Stroke-9" stroke="#000000" stroke-width="0.2" stroke-linejoin="round"></path>
        <path d="M15,15 C15,15 15.165884,21.0641551 16.6191952,22.6696953 C17.4121001,23.5492521 18.5325999,24 19.6593595,24 C20.592066,24 21.5289457,23.691856 22.2895085,23.0626039 C23.9702581,21.6764543 24.9175708,17.8251524 22.7026536,17.6396676 C16.0151269,17.0852078 15,15 15,15" id="Path" stroke="#000000" stroke-width="0.2" stroke-linejoin="round"></path>
        <path d="M23.2998221,8 C22.8885499,8 22.516843,8.16356513 22.2315555,8.54750245 C18.667543,13.3428012 16.3508829,13.5142018 16.037483,13.5142018 C16.0135355,13.5142018 16,13.5132223 16,13.5132223 C16,13.5132223 20.8686305,16 23.2789982,16 C23.4476719,16 23.6017688,15.9882468 23.7423302,15.9627816 C25.9205113,15.5729677 27.3448669,13.5935357 26.9273475,11.546523 C26.6066592,9.956905 24.7231364,8 23.2998221,8" id="Fill-10" fill="#FF00B4"></path>
    </g>
</svg>