<?xml version="1.0" encoding="UTF-8"?>
<svg width="163px" height="57px" viewBox="0 0 163 57" version="1.1" xmlns="http://www.w3.org/2000/svg" xmlns:xlink="http://www.w3.org/1999/xlink">
    <!-- Generator: Sketch 51.3 (57544) - http://www.bohemiancoding.com/sketch -->
    <title>logo</title>
    <desc>Created with Sketch.</desc>
    <defs></defs>
    <g id="logo" stroke="none" stroke-width="1" fill="none" fill-rule="evenodd">
        <path d="M53.4805,48.8293 C52.8135,48.8293 52.4175,48.8383 51.5285,48.9543 C51.4315,48.9743 51.3925,49.0033 51.3925,49.0993 L51.3925,55.8743 C51.3925,55.9523 51.4315,56.0003 51.5185,56.0003 L51.9725,56.0003 C52.0495,56.0003 52.0885,55.9523 52.0885,55.8743 L52.0885,54.0963 C52.5435,54.1443 52.9295,54.1543 53.4125,54.1543 C55.2685,54.1543 55.6065,53.6413 55.6065,51.5163 C55.6065,49.3603 55.2685,48.8293 53.4805,48.8293 Z M53.4805,49.4473 C54.7555,49.4473 54.9015,49.8533 54.9015,51.5063 C54.9015,53.1403 54.7465,53.5353 53.4125,53.5353 C52.9975,53.5353 52.5135,53.5073 52.0885,53.4683 L52.0885,49.4473 L53.4805,49.4473 Z M58.8145,48.8293 C57.0655,48.8293 56.7085,49.3503 56.7085,51.4863 C56.7085,53.6223 57.0655,54.1543 58.8145,54.1543 C59.3085,54.1543 59.8885,54.1353 60.3425,54.0863 C60.4195,54.0773 60.4585,54.0283 60.4585,53.9613 L60.4585,53.6613 C60.4585,53.5743 60.4105,53.5353 60.3325,53.5353 L58.8145,53.5353 C57.6845,53.5353 57.4425,53.1783 57.4145,51.8353 L60.5745,51.8353 C60.8455,51.8353 60.8745,51.7573 60.8745,51.5933 L60.8745,51.3123 C60.8545,49.3213 60.4675,48.8293 58.8145,48.8293 Z M58.8145,49.4473 C59.9265,49.4473 60.1485,49.7753 60.1685,51.2063 L57.4145,51.2063 C57.4335,49.7953 57.6465,49.4473 58.8145,49.4473 Z M64.0155,48.8293 C62.2365,48.8293 61.8695,49.3603 61.8695,51.4863 C61.8695,53.6223 62.2365,54.1543 64.0155,54.1543 C65.8035,54.1543 66.1695,53.6223 66.1695,51.4863 C66.1695,49.3603 65.8035,48.8293 64.0155,48.8293 Z M64.0155,49.4473 C65.2805,49.4473 65.4745,49.8533 65.4745,51.4863 C65.4745,53.1203 65.2805,53.5353 64.0155,53.5353 C62.7585,53.5353 62.5655,53.1203 62.5655,51.4863 C62.5655,49.8533 62.7585,49.4473 64.0155,49.4473 Z M69.5235,48.8293 C68.8565,48.8293 68.4605,48.8383 67.5715,48.9543 C67.4755,48.9743 67.4365,49.0033 67.4365,49.0993 L67.4365,55.8743 C67.4365,55.9523 67.4755,56.0003 67.5625,56.0003 L68.0165,56.0003 C68.0935,56.0003 68.1325,55.9523 68.1325,55.8743 L68.1325,54.0963 C68.5865,54.1443 68.9735,54.1543 69.4565,54.1543 C71.3125,54.1543 71.6505,53.6413 71.6505,51.5163 C71.6505,49.3603 71.3125,48.8293 69.5235,48.8293 Z M69.5235,49.4473 C70.7995,49.4473 70.9445,49.8533 70.9445,51.5063 C70.9445,53.1403 70.7905,53.5353 69.4565,53.5353 C69.0415,53.5353 68.5575,53.5073 68.1325,53.4683 L68.1325,49.4473 L69.5235,49.4473 Z M73.0515,46.8773 C72.9745,46.8773 72.9255,46.9153 72.9255,46.9923 L72.9255,53.9803 C72.9255,54.0673 72.9745,54.1053 73.0515,54.1053 L73.5055,54.1053 C73.5835,54.1053 73.6315,54.0673 73.6315,53.9803 L73.6315,46.9923 C73.6315,46.9153 73.5835,46.8773 73.5055,46.8773 L73.0515,46.8773 Z M77.0145,48.8293 C75.2645,48.8293 74.9075,49.3503 74.9075,51.4863 C74.9075,53.6223 75.2645,54.1543 77.0145,54.1543 C77.5065,54.1543 78.0865,54.1353 78.5415,54.0863 C78.6185,54.0773 78.6575,54.0283 78.6575,53.9613 L78.6575,53.6613 C78.6575,53.5743 78.6085,53.5353 78.5315,53.5353 L77.0145,53.5353 C75.8835,53.5353 75.6415,53.1783 75.6125,51.8353 L78.7735,51.8353 C79.0435,51.8353 79.0725,51.7573 79.0725,51.5933 L79.0725,51.3123 C79.0535,49.3213 78.6675,48.8293 77.0145,48.8293 Z M77.0145,49.4473 C78.1265,49.4473 78.3475,49.7753 78.3675,51.2063 L75.6125,51.2063 C75.6315,49.7953 75.8445,49.4473 77.0145,49.4473 Z M80.4255,53.2463 C80.1265,53.2463 79.9615,53.4003 79.9615,53.6903 C79.9615,53.9893 80.1265,54.1543 80.4255,54.1543 C80.7155,54.1543 80.8715,53.9893 80.8715,53.6903 C80.8715,53.4003 80.7155,53.2463 80.4255,53.2463 Z M87.8865,46.8773 C87.8095,46.8773 87.7715,46.9253 87.7715,47.0023 L87.7715,48.8873 C87.4225,48.8483 86.9785,48.8293 86.4375,48.8293 C84.5825,48.8293 84.2435,49.3503 84.2435,51.4863 C84.2435,53.6323 84.5825,54.1543 86.3695,54.1543 C87.0365,54.1543 87.4425,54.1353 88.3325,53.9993 C88.4285,53.9893 88.4665,53.9513 88.4665,53.8543 L88.4665,47.0023 C88.4665,46.9253 88.4285,46.8773 88.3415,46.8773 L87.8865,46.8773 Z M87.7715,49.4473 L87.7715,53.4383 C87.2585,53.5073 86.7855,53.5353 86.3695,53.5353 C85.1035,53.5353 84.9495,53.1303 84.9495,51.4763 C84.9495,49.8443 85.1035,49.4473 86.4375,49.4473 L87.7715,49.4473 Z M91.4345,48.8293 C91.0855,48.8293 90.6515,48.8383 90.1205,48.9163 C90.0325,48.9343 90.0035,48.9543 90.0035,49.0513 L90.0035,49.3213 C90.0035,49.4183 90.0325,49.4473 90.1295,49.4473 L91.4345,49.4473 C92.3805,49.4473 92.8645,49.7083 92.8645,50.4333 L92.8645,51.1963 L91.1725,51.1963 C90.1005,51.1963 89.5595,51.5643 89.5595,52.6273 C89.5595,53.8353 90.0615,54.1543 91.3285,54.1543 C92.1875,54.1543 93.0865,54.0773 93.3865,53.9613 C93.5705,53.8923 93.5605,53.7873 93.5605,53.7103 L93.5605,50.3263 C93.5605,49.2053 92.7675,48.8293 91.4345,48.8293 Z M92.8645,51.8063 L92.8645,53.4203 C92.4595,53.5253 91.7825,53.5453 91.4825,53.5453 C90.5745,53.5453 90.2545,53.3423 90.2545,52.6273 C90.2545,52.0183 90.5445,51.8063 91.1725,51.8063 L92.8645,51.8063 Z M95.2815,47.5233 C95.2125,47.5433 95.1745,47.5823 95.1745,47.6493 L95.1745,48.8773 L94.6325,48.8773 C94.5455,48.8773 94.5075,48.9263 94.5075,49.0033 L94.5075,49.3413 C94.5075,49.4183 94.5455,49.4573 94.6325,49.4573 L95.1745,49.4573 L95.1745,53.1403 C95.1745,54.1053 95.8505,54.1543 96.5175,54.1543 C96.5845,54.1543 96.8755,54.1443 97.0395,54.1053 C97.1175,54.0863 97.1565,54.0483 97.1565,53.9803 L97.1565,53.6513 C97.1565,53.5643 97.1175,53.5353 97.0205,53.5353 L96.5075,53.5353 C95.9965,53.5353 95.8795,53.4293 95.8795,52.9943 L95.8795,49.4573 L96.9535,49.4573 C97.0305,49.4573 97.0785,49.4183 97.0785,49.3413 L97.0785,49.0033 C97.0785,48.9263 97.0305,48.8773 96.9535,48.8773 L95.8795,48.8773 L95.8795,47.5233 C95.8795,47.4273 95.8325,47.3893 95.7355,47.4173 L95.2815,47.5233 Z M99.5905,48.8293 C99.2435,48.8293 98.8085,48.8383 98.2765,48.9163 C98.1905,48.9343 98.1605,48.9543 98.1605,49.0513 L98.1605,49.3213 C98.1605,49.4183 98.1905,49.4473 98.2865,49.4473 L99.5905,49.4473 C100.5385,49.4473 101.0215,49.7083 101.0215,50.4333 L101.0215,51.1963 L99.3305,51.1963 C98.2565,51.1963 97.7155,51.5643 97.7155,52.6273 C97.7155,53.8353 98.2185,54.1543 99.4845,54.1543 C100.3445,54.1543 101.2445,54.0773 101.5435,53.9613 C101.7265,53.8923 101.7175,53.7873 101.7175,53.7103 L101.7175,50.3263 C101.7175,49.2053 100.9245,48.8293 99.5905,48.8293 Z M101.0215,51.8063 L101.0215,53.4203 C100.6155,53.5253 99.9395,53.5453 99.6395,53.5453 C98.7305,53.5453 98.4125,53.3423 98.4125,52.6273 C98.4125,52.0183 98.7025,51.8063 99.3305,51.8063 L101.0215,51.8063 Z M103.4185,53.2463 C103.1185,53.2463 102.9545,53.4003 102.9545,53.6903 C102.9545,53.9893 103.1185,54.1543 103.4185,54.1543 C103.7085,54.1543 103.8635,53.9893 103.8635,53.6903 C103.8635,53.4003 103.7085,53.2463 103.4185,53.2463 Z M107.7675,46.9533 C107.4675,46.9533 107.3035,47.1083 107.3035,47.3983 C107.3035,47.6983 107.4675,47.8623 107.7675,47.8623 C108.0575,47.8623 108.2115,47.6983 108.2115,47.3983 C108.2115,47.1083 108.0575,46.9533 107.7675,46.9533 Z M107.5365,48.8773 C107.4485,48.8773 107.4095,48.9263 107.4095,49.0033 L107.4095,53.9803 C107.4095,54.0673 107.4485,54.1053 107.5365,54.1053 L107.9905,54.1053 C108.0675,54.1053 108.1155,54.0673 108.1155,53.9803 L108.1155,49.0033 C108.1155,48.9263 108.0675,48.8773 107.9905,48.8773 L107.5365,48.8773 Z M111.6335,48.8293 C111.1785,48.8293 110.4345,48.8293 109.6815,48.9643 C109.5935,48.9743 109.5545,48.9933 109.5545,49.0903 L109.5545,53.9803 C109.5545,54.0673 109.5935,54.1053 109.6815,54.1053 L110.1355,54.1053 C110.2125,54.1053 110.2515,54.0673 110.2515,53.9803 L110.2515,49.4473 L111.7495,49.4473 C112.7065,49.4473 113.0735,49.5343 113.0735,51.0323 L113.0735,53.9803 C113.0735,54.0673 113.1125,54.1053 113.1995,54.1053 L113.6335,54.1053 C113.7205,54.1053 113.7795,54.0673 113.7795,53.9803 L113.7795,51.0323 C113.7795,49.0313 113.2275,48.8293 111.6335,48.8293 Z M115.4995,47.5233 C115.4315,47.5433 115.3925,47.5823 115.3925,47.6493 L115.3925,48.8773 L114.8515,48.8773 C114.7645,48.8773 114.7265,48.9263 114.7265,49.0033 L114.7265,49.3413 C114.7265,49.4183 114.7645,49.4573 114.8515,49.4573 L115.3925,49.4573 L115.3925,53.1403 C115.3925,54.1053 116.0695,54.1543 116.7365,54.1543 C116.8035,54.1543 117.0935,54.1443 117.2575,54.1053 C117.3355,54.0863 117.3745,54.0483 117.3745,53.9803 L117.3745,53.6513 C117.3745,53.5643 117.3355,53.5353 117.2395,53.5353 L116.7265,53.5353 C116.2145,53.5353 116.0985,53.4293 116.0985,52.9943 L116.0985,49.4573 L117.1705,49.4573 C117.2495,49.4573 117.2965,49.4183 117.2965,49.3413 L117.2965,49.0033 C117.2965,48.9263 117.2495,48.8773 117.1705,48.8773 L116.0985,48.8773 L116.0985,47.5233 C116.0985,47.4273 116.0495,47.3893 115.9535,47.4173 L115.4995,47.5233 Z M120.2155,48.8293 C118.4665,48.8293 118.1085,49.3503 118.1085,51.4863 C118.1085,53.6223 118.4665,54.1543 120.2155,54.1543 C120.7095,54.1543 121.2885,54.1353 121.7425,54.0863 C121.8205,54.0773 121.8585,54.0283 121.8585,53.9613 L121.8585,53.6613 C121.8585,53.5743 121.8105,53.5353 121.7335,53.5353 L120.2155,53.5353 C119.0845,53.5353 118.8425,53.1783 118.8145,51.8353 L121.9745,51.8353 C122.2455,51.8353 122.2745,51.7573 122.2745,51.5933 L122.2745,51.3123 C122.2545,49.3213 121.8685,48.8293 120.2155,48.8293 Z M120.2155,49.4473 C121.3275,49.4473 121.5485,49.7753 121.5695,51.2063 L118.8145,51.2063 C118.8345,49.7953 119.0455,49.4473 120.2155,49.4473 Z M124.8265,48.8293 C124.4005,48.8293 123.4245,48.8383 123.4245,49.8533 L123.4245,53.9803 C123.4245,54.0673 123.4725,54.1053 123.5495,54.1053 L124.0035,54.1053 C124.0905,54.1053 124.1295,54.0673 124.1295,53.9803 L124.1295,49.9983 C124.1295,49.5343 124.4105,49.4473 124.9805,49.4473 L125.8215,49.4473 C125.8985,49.4573 125.9475,49.4183 125.9475,49.3313 L125.9475,49.0513 C125.9475,48.9743 125.9085,48.9443 125.8315,48.9163 C125.6675,48.8573 125.0575,48.8293 124.8265,48.8293 Z M128.2175,48.8293 C127.8705,48.8293 127.4355,48.8383 126.9035,48.9163 C126.8175,48.9343 126.7885,48.9543 126.7885,49.0513 L126.7885,49.3213 C126.7885,49.4183 126.8175,49.4473 126.9135,49.4473 L128.2175,49.4473 C129.1665,49.4473 129.6485,49.7083 129.6485,50.4333 L129.6485,51.1963 L127.9575,51.1963 C126.8845,51.1963 126.3425,51.5643 126.3425,52.6273 C126.3425,53.8353 126.8455,54.1543 128.1125,54.1543 C128.9725,54.1543 129.8715,54.0773 130.1705,53.9613 C130.3545,53.8923 130.3445,53.7873 130.3445,53.7103 L130.3445,50.3263 C130.3445,49.2053 129.5515,48.8293 128.2175,48.8293 Z M129.6485,51.8063 L129.6485,53.4203 C129.2425,53.5253 128.5665,53.5453 128.2665,53.5453 C127.3575,53.5453 127.0395,53.3423 127.0395,52.6273 C127.0395,52.0183 127.3295,51.8063 127.9575,51.8063 L129.6485,51.8063 Z M133.7275,48.8293 C131.9485,48.8293 131.5825,49.3603 131.5825,51.4863 C131.5825,53.6223 131.9485,54.1543 133.7275,54.1543 C134.0935,54.1543 134.7035,54.1353 135.1575,54.0863 C135.2355,54.0773 135.2735,54.0283 135.2735,53.9613 L135.2735,53.6613 C135.2735,53.5743 135.2255,53.5353 135.1485,53.5353 L133.7275,53.5353 C132.4705,53.5353 132.2775,53.1203 132.2775,51.4863 C132.2775,49.8533 132.4705,49.4473 133.7275,49.4473 L135.1485,49.4473 C135.2255,49.4473 135.2735,49.4083 135.2735,49.3213 L135.2735,49.0223 C135.2735,48.9543 135.2355,48.9063 135.1575,48.8963 C134.7035,48.8383 134.0935,48.8293 133.7275,48.8293 Z M136.6555,47.5233 C136.5875,47.5433 136.5485,47.5823 136.5485,47.6493 L136.5485,48.8773 L136.0075,48.8773 C135.9205,48.8773 135.8815,48.9263 135.8815,49.0033 L135.8815,49.3413 C135.8815,49.4183 135.9205,49.4573 136.0075,49.4573 L136.5485,49.4573 L136.5485,53.1403 C136.5485,54.1053 137.2255,54.1543 137.8925,54.1543 C137.9595,54.1543 138.2505,54.1443 138.4155,54.1053 C138.4925,54.0863 138.5305,54.0483 138.5305,53.9803 L138.5305,53.6513 C138.5305,53.5643 138.4925,53.5353 138.3955,53.5353 L137.8825,53.5353 C137.3715,53.5353 137.2545,53.4293 137.2545,52.9943 L137.2545,49.4573 L138.3275,49.4573 C138.4055,49.4573 138.4535,49.4183 138.4535,49.3413 L138.4535,49.0033 C138.4535,48.9263 138.4055,48.8773 138.3275,48.8773 L137.2545,48.8773 L137.2545,47.5233 C137.2545,47.4273 137.2065,47.3893 137.1095,47.4173 L136.6555,47.5233 Z M139.7965,46.9533 C139.4975,46.9533 139.3335,47.1083 139.3335,47.3983 C139.3335,47.6983 139.4975,47.8623 139.7965,47.8623 C140.0865,47.8623 140.2415,47.6983 140.2415,47.3983 C140.2415,47.1083 140.0865,46.9533 139.7965,46.9533 Z M139.5645,48.8773 C139.4775,48.8773 139.4395,48.9263 139.4395,49.0033 L139.4395,53.9803 C139.4395,54.0673 139.4775,54.1053 139.5645,54.1053 L140.0185,54.1053 C140.0965,54.1053 140.1445,54.0673 140.1445,53.9803 L140.1445,49.0033 C140.1445,48.9263 140.0965,48.8773 140.0185,48.8773 L139.5645,48.8773 Z M143.5665,48.8293 C141.7885,48.8293 141.4205,49.3603 141.4205,51.4863 C141.4205,53.6223 141.7885,54.1543 143.5665,54.1543 C145.3545,54.1543 145.7205,53.6223 145.7205,51.4863 C145.7205,49.3603 145.3545,48.8293 143.5665,48.8293 Z M143.5665,49.4473 C144.8325,49.4473 145.0255,49.8533 145.0255,51.4863 C145.0255,53.1203 144.8325,53.5353 143.5665,53.5353 C142.3095,53.5353 142.1165,53.1203 142.1165,51.4863 C142.1165,49.8533 142.3095,49.4473 143.5665,49.4473 Z M149.0655,48.8293 C148.6115,48.8293 147.8675,48.8293 147.1125,48.9643 C147.0265,48.9743 146.9875,48.9933 146.9875,49.0903 L146.9875,53.9803 C146.9875,54.0673 147.0265,54.1053 147.1125,54.1053 L147.5675,54.1053 C147.6445,54.1053 147.6825,54.0673 147.6825,53.9803 L147.6825,49.4473 L149.1815,49.4473 C150.1375,49.4473 150.5055,49.5343 150.5055,51.0323 L150.5055,53.9803 C150.5055,54.0673 150.5435,54.1053 150.6305,54.1053 L151.0665,54.1053 C151.1535,54.1053 151.2105,54.0673 151.2105,53.9803 L151.2105,51.0323 C151.2105,49.0313 150.6605,48.8293 149.0655,48.8293 Z M152.9125,53.2463 C152.6125,53.2463 152.4485,53.4003 152.4485,53.6903 C152.4485,53.9893 152.6125,54.1543 152.9125,54.1543 C153.2025,54.1543 153.3565,53.9893 153.3565,53.6903 C153.3565,53.4003 153.2025,53.2463 152.9125,53.2463 Z" id="Fill-1" fill="#1A1919"></path>
        <path d="M59.3921,7.9617 C50.4991,7.9617 48.0831,10.9827 48.0831,21.3847 C48.0831,31.7877 50.4991,34.8757 59.3921,34.8757 C63.0501,34.8757 64.6941,34.6407 66.3381,34.1697 C66.9761,34.0027 67.3121,33.7677 67.3121,33.0297 L67.3121,29.2707 C67.3121,28.9357 67.1441,28.7337 66.8091,28.7337 L59.3921,28.7337 C55.8691,28.7337 55.2311,26.8877 55.2311,21.3847 C55.2311,15.8817 55.8691,14.1037 59.3921,14.1037 L66.8091,14.1037 C67.1441,14.1037 67.3121,13.9357 67.3121,13.5657 L67.3121,9.8077 C67.3121,9.0687 66.9761,8.8677 66.3381,8.6667 C64.6941,8.2307 63.0501,7.9617 59.3921,7.9617 Z M80.7681,7.9617 C76.1371,7.9617 75.3321,8.2307 74.2911,12.0557 L68.2511,34.1697 C68.1841,34.5397 68.3861,34.7077 68.6871,34.7077 L74.5601,34.7077 C74.8961,34.7077 74.9291,34.5397 75.0301,34.1697 L76.8091,27.5927 L84.7281,27.5927 L86.5071,34.1697 C86.6071,34.5397 86.6411,34.7077 86.9761,34.7077 L92.8491,34.7077 C93.1511,34.7077 93.3521,34.5397 93.2851,34.1697 L87.2451,12.0557 C86.2041,8.2637 85.3991,7.9617 80.7681,7.9617 Z M80.7351,13.7677 C80.9361,13.7677 80.9701,13.8687 81.0041,13.9687 L83.1841,21.8887 L78.3521,21.8887 L80.4671,13.9687 C80.5001,13.8687 80.5331,13.7677 80.7351,13.7677 Z M104.5261,7.9617 C97.4791,7.9617 94.5941,10.1087 94.5941,14.9417 L94.5941,15.6467 C94.5941,20.8147 96.4051,22.4927 99.3581,23.4987 L104.5261,25.2777 C105.9701,25.7807 106.8091,26.0827 106.8091,27.2567 L106.8091,27.4927 C106.8091,28.3647 106.1381,28.7337 104.9961,28.7337 L95.1641,28.7337 C94.5941,28.7337 94.3581,28.9687 94.3581,29.5057 L94.3581,32.9957 C94.3581,33.5657 94.5591,33.8007 95.0971,33.9357 C98.5541,34.6067 101.2041,34.8757 103.4861,34.8757 C110.2991,34.8757 113.9231,32.6937 113.9231,27.8617 L113.9231,27.0557 C113.9231,21.9557 111.8761,20.6797 108.5201,19.4717 L103.1841,17.5597 C102.2451,17.2237 101.7081,16.5867 101.7081,15.8477 L101.7081,15.4787 C101.7081,14.6067 102.4121,14.1037 103.6211,14.1037 L111.9421,14.1037 C112.4791,14.1037 112.7151,13.9017 112.7151,13.3647 L112.7151,9.5727 C112.7151,9.2037 112.5141,9.0027 111.9761,8.8347 C109.4931,8.2307 107.3461,7.9617 104.5261,7.9617 Z M117.2781,8.1627 C116.9431,8.1627 116.7751,8.3647 116.7751,8.6997 L116.7751,34.1697 C116.7751,34.5397 116.9431,34.7077 117.2781,34.7077 L135.1641,34.7077 C135.5001,34.7077 135.7011,34.5397 135.7011,34.2037 L135.7011,29.0687 C135.7011,28.7337 135.5001,28.5657 135.1641,28.5657 L123.8221,28.5657 L123.8221,24.3377 L134.2581,24.3377 C134.5941,24.3377 134.7951,24.1697 134.7951,23.8347 L134.7951,19.0357 C134.7951,18.6997 134.5941,18.5327 134.2581,18.5327 L123.8221,18.5327 L123.8221,14.3037 L135.1641,14.3037 C135.5001,14.3037 135.7011,14.1367 135.7011,13.8007 L135.7011,8.6667 C135.7011,8.3307 135.5001,8.1627 135.1641,8.1627 L117.2781,8.1627 Z" id="Fill-3" fill="#1A1919"></path>
        <path d="M145.6299,8.1345 C141.1399,8.1345 140.1279,9.7975 140.1279,15.3375 C140.1279,20.8795 141.1399,22.4835 145.6299,22.4835 C150.1199,22.4835 151.1519,20.8795 151.1519,15.3375 C151.1519,9.7975 150.1199,8.1345 145.6299,8.1345 M145.6299,9.0715 C149.3559,9.0715 150.0819,10.5045 150.0819,15.3375 C150.0819,20.1725 149.3559,21.5475 145.6299,21.5475 C141.9039,21.5475 141.1789,20.1725 141.1789,15.3375 C141.1789,10.5045 141.9039,9.0715 145.6299,9.0715 M157.9729,8.1345 C155.2979,8.1345 153.5399,8.7465 153.5399,11.1725 L153.5399,11.5355 C153.5399,12.8735 153.8079,13.8665 155.5269,14.5925 L160.1509,16.5225 C161.6039,17.1915 161.6989,18.3185 161.6989,19.0065 L161.6989,19.4265 C161.6989,21.3755 160.0749,21.5475 158.3559,21.5475 L153.5019,21.5475 C153.4069,21.5475 153.3299,21.6055 153.3299,21.7005 L153.3299,22.1775 C153.3299,22.2925 153.3879,22.3495 153.4829,22.3495 C154.7059,22.4455 157.0939,22.4835 158.1069,22.4835 C160.3039,22.4835 162.7499,22.4265 162.7499,19.4465 L162.7499,18.9305 C162.7499,18.0515 162.6159,16.5415 160.7629,15.7195 L156.2919,13.8095 C154.8779,13.2175 154.6099,12.6055 154.6099,11.4405 L154.6099,11.1915 C154.6099,9.7015 155.6039,9.0715 157.7059,9.0715 L161.8519,9.0715 C161.9469,9.0715 162.0049,9.0135 162.0049,8.8985 L162.0049,8.4215 C162.0049,8.3255 161.9469,8.2685 161.8329,8.2685 C160.6289,8.1725 158.9669,8.1345 157.9729,8.1345" id="Fill-5" fill="#1A1919"></path>
        <g id="sign" transform="translate(-3.000000, 0.000000)">
            <polygon id="Fill-7" fill="#D8127D" points="3.2671 12.1384 3.2671 36.1524 25.7471 36.1524 25.7471 31.4014 30.4991 31.4014 30.4991 28.1904 14.5721 28.1904 14.5721 12.1384"></polygon>
            <polygon id="Fill-9" fill="#00A3DA" points="30.4995 28.1902 38.5935 28.1902 38.5935 4.1752 19.3245 4.1752 19.3245 8.9272 14.5715 8.9272 14.5715 12.1382 30.4995 12.1382"></polygon>
            <polygon id="Fill-11" fill="#84BF41" points="25.7466 36.1526 25.7466 42.0086 36.3576 42.0086 36.3576 31.4016 30.4996 31.4016 30.4996 36.1526"></polygon>
            <polygon id="Fill-13" fill="#326D3C" points="25.747 36.153 30.5 36.153 30.5 31.402 25.747 31.402"></polygon>
            <polygon id="Fill-15" fill="#F2B02A" points="10.9561 0.5608 10.9561 8.9268 14.5711 8.9268 14.5711 4.1748 19.3251 4.1748 19.3251 0.5608"></polygon>
            <polygon id="Fill-16" fill="#CC652E" points="14.572 8.927 19.325 8.927 19.325 4.176 14.572 4.176"></polygon>
        </g>
    </g>
</svg>